<?xml version="1.0" ?><!DOCTYPE svg  PUBLIC '-//W3C//DTD SVG 1.1//EN'  'http://www.w3.org/Graphics/SVG/1.1/DTD/svg11.dtd'><svg enable-background="new 0 0 91 91" height="91px" id="Layer_1" version="1.1" viewBox="0 0 91 91" width="91px" xml:space="preserve" xmlns="http://www.w3.org/2000/svg" xmlns:xlink="http://www.w3.org/1999/xlink"><g><g><path d="M43.101,66.588c-0.052,0.056-0.118-0.199-0.18-0.161L61.695,84.78h17.664c4.036,0,8.188-2.724,8.188-6.759    V59.224L68.981,40.655L43.101,66.588z" fill="#7BA7C9"/><polygon fill="#B0E0D4" points="3.668,79.83 3.668,85.362 59.316,85.362 31.313,57.324   "/><path d="M3.668,6.403v71.273L30.844,55.53c0.331-0.269,0.578-0.25,0.88,0.051l10.071,9.98    c0.034-0.061,0.066-0.147,0.117-0.202l26.054-26.586c0.157-0.16,0.388-0.346,0.612-0.346h0.028c0.227,0,0.784,0.187,0.94,0.348    l17.932,18.048V6.408L3.668,6.403z" fill="#E0F1F8"/></g><g><g><g><path d="M40.142,30.883c0,4.62-3.749,8.368-8.369,8.368c-4.624,0-8.374-3.749-8.374-8.368      c0-4.625,3.75-8.373,8.374-8.373C36.393,22.51,40.142,26.258,40.142,30.883z" fill="#FDE497"/><path d="M31.773,41.766c-6.004,0-10.889-4.882-10.889-10.883c0-6.003,4.884-10.887,10.889-10.887      c6,0,10.883,4.883,10.883,10.887C42.656,36.883,37.774,41.766,31.773,41.766z M31.773,25.025c-3.231,0-5.86,2.628-5.86,5.858      c0,3.228,2.629,5.854,5.86,5.854c3.228,0,5.854-2.626,5.854-5.854C37.627,27.653,35.001,25.025,31.773,25.025z" fill="#454B53"/></g><path d="M31.773,17.539c-1.389,0-2.515-1.125-2.515-2.515v-2.563c0-1.388,1.126-2.514,2.515-2.514     s2.514,1.126,2.514,2.514v2.563C34.288,16.414,33.162,17.539,31.773,17.539z" fill="#454B53"/><path d="M50.189,33.397h-2.555c-1.389,0-2.515-1.126-2.515-2.515s1.126-2.515,2.515-2.515h2.555     c1.389,0,2.515,1.126,2.515,2.515S51.578,33.397,50.189,33.397z" fill="#454B53"/><path d="M31.773,51.809c-1.389,0-2.515-1.127-2.515-2.516V46.74c0-1.389,1.126-2.515,2.515-2.515     s2.514,1.125,2.514,2.515v2.553C34.288,50.682,33.162,51.809,31.773,51.809z" fill="#454B53"/><path d="M15.911,33.397h-2.556c-1.389,0-2.515-1.126-2.515-2.515s1.125-2.515,2.515-2.515h2.556     c1.388,0,2.514,1.126,2.514,2.515S17.299,33.397,15.911,33.397z" fill="#454B53"/><path d="M42.521,22.646c-0.643,0-1.286-0.246-1.778-0.736c-0.982-0.982-0.982-2.574-0.001-3.557l2.273-2.274     c0.983-0.979,2.573-0.982,3.556-0.001c0.982,0.982,0.982,2.574,0.001,3.557l-2.273,2.274     C43.808,22.4,43.165,22.646,42.521,22.646z" fill="#454B53"/><path d="M44.794,46.414c-0.626,0-1.253-0.232-1.741-0.699l-2.273-2.18c-1.002-0.962-1.035-2.553-0.075-3.555     c0.962-1.003,2.554-1.035,3.556-0.075l2.273,2.181c1.002,0.961,1.035,2.553,0.074,3.555     C46.114,46.155,45.455,46.414,44.794,46.414z" fill="#454B53"/><path d="M18.75,46.414c-0.645,0-1.291-0.247-1.781-0.74c-0.98-0.984-0.977-2.576,0.008-3.555l2.19-2.18     c0.984-0.979,2.577-0.976,3.556,0.008c0.98,0.983,0.976,2.576-0.008,3.555l-2.19,2.18C20.034,46.17,19.392,46.414,18.75,46.414z" fill="#454B53"/><path d="M20.942,22.562c-0.643,0-1.286-0.245-1.777-0.736l-2.192-2.188c-0.982-0.981-0.984-2.574-0.002-3.556     c0.981-0.981,2.574-0.983,3.555-0.002l2.192,2.189c0.982,0.981,0.984,2.573,0.002,3.555     C22.23,22.315,21.586,22.562,20.942,22.562z" fill="#454B53"/><path d="M79.995,88.49H2.994c-1.389,0-2.515-1.126-2.515-2.515V5.363c0-0.667,0.265-1.307,0.737-1.778     c0.471-0.472,1.111-0.737,1.778-0.737l0,0l85.158,0.003c1.389,0,2.515,1.126,2.515,2.515V77.82     C90.666,83.704,85.88,88.49,79.995,88.49z M5.508,83.461h74.487c3.11,0,5.642-2.53,5.642-5.641V7.88L5.508,7.877V83.461z" fill="#454B53"/><path d="M61.989,88.495c-0.639,0-1.28-0.243-1.771-0.729L31.595,59.358L4.574,81.187     c-1.082,0.875-2.665,0.703-3.536-0.374c-0.873-1.081-0.705-2.663,0.375-3.536l28.774-23.245c1-0.807,2.442-0.731,3.351,0.171     l30.222,29.994c0.986,0.978,0.992,2.569,0.014,3.556C63.282,88.247,62.637,88.495,61.989,88.495z" fill="#454B53"/><path d="M43.137,68.31c-0.636,0-1.271-0.239-1.761-0.72c-0.991-0.972-1.006-2.563-0.033-3.556l26.047-26.541     c0.473-0.482,1.119-0.753,1.794-0.753c0.001,0,0.002,0,0.003,0c0.677,0.001,1.324,0.274,1.797,0.758l18.967,19.427     c0.97,0.993,0.95,2.585-0.043,3.556c-0.993,0.97-2.586,0.952-3.556-0.043L69.18,42.849L44.932,67.557     C44.44,68.058,43.788,68.31,43.137,68.31z" fill="#454B53"/></g></g></g></svg>